HIERARCHY
ROOT Hips
{
  OFFSET 1.44925e-005 102.336 -0.101585
  CHANNELS 6 Xposition Yposition Zposition Zrotation Xrotation Yrotation
  JOINT RightUpLeg
  {
    OFFSET -8.9458 -8.66707 0.101652
    CHANNELS 3 Zrotation Xrotation Yrotation
    JOINT RightLeg
    {
      OFFSET 0 -44.4227 1.3727
      CHANNELS 3 Zrotation Xrotation Yrotation
      JOINT RightFoot
      {
        OFFSET 0.253549 -42.0924 -1.46059
        CHANNELS 3 Zrotation Xrotation Yrotation
        JOINT RightToes
        {
          OFFSET 0.04 -4.41509 8.4991
          CHANNELS 3 Zrotation Xrotation Yrotation
          End Site
          {
            OFFSET -0.08 -0.137448 9.77979
          }
        }
      }
    }
  }
  JOINT Spine
  {
    OFFSET 0 11.8905 0
    CHANNELS 3 Zrotation Xrotation Yrotation
    JOINT Spine1
    {
      OFFSET 0 25.6574 0.127663
      CHANNELS 3 Zrotation Xrotation Yrotation
      JOINT HEad
      {
        OFFSET 0 8.73416 0.011341
        CHANNELS 3 Zrotation Xrotation Yrotation
        End Site
        {
          OFFSET -0.29 12.7742 2.51395
        }
      }
      JOINT LeftShoulder1
      {
        OFFSET 8.99 -0.362252 -0.22
        CHANNELS 3 Zrotation Xrotation Yrotation
        JOINT LeftArm
        {
          OFFSET 10.2827 -0.00337999 0.322123
          CHANNELS 3 Zrotation Xrotation Yrotation
          JOINT LeftForeArm
          {
            OFFSET 26.2597 0.099144 -1.42434
            CHANNELS 3 Zrotation Xrotation Yrotation
            JOINT LeftHand
            {
              OFFSET 22.0902 0.085362 1.02216
              CHANNELS 3 Zrotation Xrotation Yrotation
              End Site
              {
                OFFSET 13.419 -0.6 1.50291
              }
            }
          }
        }
      }
      JOINT RightShoulder
      {
        OFFSET -8.99 -0.362252 -0.22
        CHANNELS 3 Zrotation Xrotation Yrotation
        JOINT RightArm
        {
          OFFSET -10.2827 -0.00338 0.322123
          CHANNELS 3 Zrotation Xrotation Yrotation
          JOINT RightForeArm
          {
            OFFSET -26.364 0.099144 -1.42434
            CHANNELS 3 Zrotation Xrotation Yrotation
            JOINT RightHand
            {
              OFFSET -22.0324 0.085362 1.02216
              CHANNELS 3 Zrotation Xrotation Yrotation
              End Site
              {
                OFFSET -13.3284 -0.6 1.50291
              }
            }
          }
        }
      }
    }
  }
  JOINT LeftUpLeg
  {
    OFFSET 8.9458 -8.66707 0.101652
    CHANNELS 3 Zrotation Xrotation Yrotation
    JOINT LeftLeg
    {
      OFFSET 0 -44.4227 1.3727
      CHANNELS 3 Zrotation Xrotation Yrotation
      JOINT LeftFoot
      {
        OFFSET -0.253549 -42.0924 -1.46059
        CHANNELS 3 Zrotation Xrotation Yrotation
        JOINT LeftToes
        {
          OFFSET -0.04 -4.41509 8.4991
          CHANNELS 3 Zrotation Xrotation Yrotation
          End Site
          {
            OFFSET 0.08 -0.047448 9.77979
          }
        }
      }
    }
  }
}
MOTION
Frames:	16
Frame Time:	0.0333333
-9.12084 97.9715 99.6959 2.27688 2.86928 179.213 -21.4784 -14.111 -14.3709 -0.411927 37.0721 -0.0598358 19.0808 -12.6645 0.648296 0.0462048 0.000530889 0.662642 7.64737 13.3564 0.837804 -5.22543 5.71589 2.76946 -0.519273 -21.2105 -6.25645 -24.7712 2.60584 -4.8931 -52.365 7.49537 -29.1697 -38.8791 8.27788 -60.3057 13.5907 7.68262 -14.5852 35.8668 5.59 9.25802 38.3955 -0.882138 15.6596 -26.9974 21.81 96.1541 -33.4665 8.78381 -1.56163 23.087 -18.2156 10.785 0.393279 43.029 -0.566161 -19.0445 -14.934 -1.16693 -1.29846e-009 8.75235e-006 -1.46902e-008 
-9.10286 97.8784 99.9395 2.25961 3.06582 179.566 -21.9548 -14.0611 -15.4925 -0.373608 37.4209 0.852746 19.066 -12.2071 0.571947 0.0462048 0.000530889 0.662642 7.97312 13.9745 0.595096 -5.53655 5.09445 2.69559 -0.198638 -20.7476 -6.4824 -24.6634 2.59384 -4.88233 -52.2675 6.4857 -28.844 -38.2221 9.37942 -61.2748 15.0373 7.26037 -15.9026 35.5433 5.54637 9.25506 39.058 -0.387998 16.7036 -27.9032 21.8333 96.1806 -33.3656 8.78951 -1.56907 22.6947 -18.6563 9.11909 0.412848 43.4579 -0.223994 -19.7164 -14.7691 -1.18387 -1.29846e-009 8.75235e-006 -1.46902e-008 
-9.21028 97.5435 100.268 2.41249 3.30678 179.996 -22.4611 -14.261 -16.4178 -0.348294 38.3297 1.54281 19.5766 -12.0284 0.563415 0.0462048 0.000530889 0.662642 8.31049 14.6796 0.275223 -5.64605 4.35915 2.49394 0.318722 -19.9809 -6.66054 -24.6184 2.58274 -4.85813 -52.4316 5.31626 -28.5834 -36.8708 10.6857 -62.3011 14.6673 7.255 -16.509 35.0095 5.46418 9.22498 39.8008 0.0144646 17.8695 -28.0899 21.9034 96.0607 -32.9296 8.80512 -1.569 22.5306 -19.7357 7.22913 0.375916 44.9966 -0.958125 -19.4642 -15.2221 -1.24339 -1.29846e-009 8.75235e-006 -1.46902e-008 
-9.42325 96.9301 100.665 2.77204 3.61857 -179.637 -22.8325 -14.593 -17.1505 -0.319758 39.7462 2.23971 20.0815 -12.7036 0.700766 0.0462048 0.000530889 0.662642 8.35947 15.4801 0.00326033 -5.68573 3.54437 2.24264 1.03651 -18.977 -6.66173 -24.4687 2.58405 -4.90135 -52.7464 4.34252 -28.3529 -35.4798 11.9155 -63.3423 13.2134 7.46795 -17.1292 34.2923 5.35452 9.1842 40.4284 0.37606 19.0667 -27.8479 21.9681 95.9115 -32.382 8.78998 -1.44426 22.6396 -21.2031 4.79598 0.238839 47.2509 -3.68291 -18.1724 -16.5757 -1.36884 -1.29846e-009 8.75235e-006 -1.46902e-008 
-9.90467 96.0352 101.128 3.10858 4.22973 -179.66 -23.3755 -14.9737 -17.44 -0.273234 41.5068 3.3649 20.5269 -13.7189 0.90275 0.0462048 0.000530889 0.662642 8.06958 16.5664 -0.113828 -5.62266 2.73633 2.10552 1.68673 -17.9263 -6.48174 -24.0046 2.59628 -5.06424 -52.9462 3.73671 -28.4692 -35.1078 12.7084 -64.2754 11.5572 7.84615 -16.5979 33.5071 5.2343 9.1361 40.819 0.660108 20.3487 -27.4959 21.9978 95.8192 -31.9133 8.74552 -1.219 22.6201 -22.2381 1.57375 0.00740889 49.5418 -8.04904 -17.303 -19.0018 -1.66993 -1.29846e-009 8.75235e-006 -1.46902e-008 
-10.9063 94.9646 101.639 3.49723 5.09949 179.832 -24.1295 -15.402 -17.0928 -0.232787 43.075 4.41281 21.4403 -14.0836 1.0215 0.0462048 0.000530889 0.662642 7.86714 17.6191 -0.144528 -5.1315 2.29926 2.06631 1.96109 -17.0239 -6.16038 -23.4448 2.58219 -5.16938 -52.7169 3.50147 -29.3105 -35.1129 13.2159 -64.9777 10.5016 8.24174 -14.3986 32.8773 5.1254 9.06344 40.8261 0.735769 21.8196 -27.0466 22.0101 95.7516 -31.4689 8.70529 -1.00606 22.3871 -22.6262 -1.49875 -0.232683 51.8307 -12.1235 -17.2231 -22.2909 -2.16367 -1.29846e-009 8.75235e-006 -1.46902e-008 
-12.4988 93.9808 102.179 4.10928 5.71492 179.011 -24.7685 -15.7749 -16.4354 -0.211448 43.5011 4.84559 22.8743 -13.7545 1.04113 0.0462048 0.000530889 0.662642 7.70606 17.8233 -0.218088 -4.25887 2.79618 1.88274 1.88285 -16.5236 -5.41948 -23.3119 2.52425 -5.0122 -52.0773 3.48911 -30.723 -33.8247 13.917 -65.5501 10.6018 8.36132 -12.7833 32.6703 5.05283 8.94492 40.0676 0.595473 23.5925 -26.5635 22.1106 95.4988 -30.9351 8.70583 -0.926586 21.9045 -23.1018 -3.20099 -0.319532 54.502 -13.5363 -16.6348 -25.4745 -2.55909 -1.29846e-009 8.75235e-006 -1.46902e-008 
-14.7635 93.5296 102.772 4.68339 5.61761 177.68 -25.23 -15.9314 -15.6047 -0.203149 41.3947 5.18307 24.2691 -12.1832 0.784078 0.0462048 0.000530889 0.662642 7.09496 17.0768 -0.326749 -3.45031 4.08714 1.43729 1.74071 -16.5219 -3.72745 -23.6975 2.4824 -4.76892 -51.6345 3.46539 -31.8759 -30.6736 14.8904 -65.9496 11.8962 8.12984 -13.0165 32.8772 5.01811 8.7906 38.4087 0.425389 25.5038 -26.2622 22.4567 94.7469 -30.3119 8.71412 -0.859377 20.6433 -23.9717 -3.36559 -0.206618 57.0529 -11.4384 -14.8502 -27.4559 -2.53571 -1.29846e-009 8.75235e-006 -1.46902e-008 
-18.0122 94.0008 103.439 4.71168 4.82067 174.911 -25.838 -16.1502 -13.6946 -0.100893 35.3901 5.19055 25.6586 -6.57911 -0.430155 0.0462048 0.000530889 0.662642 6.13877 16.4655 -0.312429 -3.00354 4.84892 1.07799 1.58858 -16.5718 -0.839272 -24.0473 2.54245 -4.87537 -52.086 3.21202 -31.8916 -26.6369 15.8145 -65.9004 13.6814 7.73629 -13.9596 32.9923 4.97756 8.65138 36.6496 0.378988 26.9051 -26.0456 23.103 93.3444 -29.5122 8.62369 -0.365198 18.249 -24.4958 -2.03452 0.044517 58.1024 -7.289 -12.5611 -27.744 -2.15163 -1.29846e-009 8.75235e-006 -1.46902e-008 
-22.2511 95.2111 104.142 4.28429 3.70361 169.76 -26.2257 -16.7935 -11.2004 -0.545872 25.3935 3.98176 27.29 4.78239 -3.09636 0.0462048 0.000530889 0.662642 5.76133 17.2595 -0.00938618 -3.25173 3.72766 1.38736 1.07657 -16.0223 2.9868 -23.8442 2.7061 -5.47137 -53.289 2.68145 -30.6375 -22.8607 16.5165 -65.3379 14.9251 7.50412 -14.1146 32.5256 4.87909 8.54489 35.8716 0.458428 27.2964 -25.3578 23.8993 91.4521 -28.1757 8.4237 0.730329 15.761 -24.0655 1.526 0.340512 57.2401 -3.19265 -10.4618 -26.7744 -1.67218 -1.29846e-009 8.75235e-006 -1.46902e-008 
-26.8626 96.3983 104.807 3.88896 2.57404 162.681 -25.6999 -18.1879 -12.8129 -1.69373 15.6229 3.14058 26.7994 16.8151 -5.75463 0.0462048 0.000530889 0.662642 6.01026 19.1263 0.527149 -4.11437 1.31094 2.27319 0.0510139 -14.8081 7.44275 -23.148 2.86471 -6.20686 -54.2091 2.10639 -28.8658 -19.7432 17.0734 -64.5195 15.4314 7.46473 -13.7355 31.7555 4.74926 8.4485 35.9866 0.686928 27.1666 -23.7459 24.6567 89.2272 -26.0329 8.29926 1.82956 14.3567 -23.2863 7.34366 0.566037 55.797 0.157158 -8.47296 -25.6348 -1.2397 -1.29846e-009 8.75235e-006 -1.46902e-008 
-31.5699 97.263 105.483 4.24691 1.67325 155.173 -23.7914 -20.9906 -15.5988 -1.1089 14.5101 0.0203325 20.4347 19.4532 -4.92921 0.0462048 0.000530889 0.662642 7.11027 21.1237 0.829199 -4.60492 -0.48815 3.02389 -1.04813 -13.2782 12.4824 -22.3358 2.90652 -6.60946 -54.0173 1.80689 -27.6773 -17.3255 17.4065 -63.2563 15.6666 7.42793 -13.7135 31.3548 4.68937 8.41647 36.0024 1.22348 27.583 -21.3002 25.4278 86.3099 -23.4255 8.38748 2.23898 14.0569 -22.6847 13.5137 0.750123 54.7459 3.32908 -6.40832 -24.8215 -0.858231 -1.29846e-009 8.75235e-006 -1.46902e-008 
-36.2511 97.8062 106.192 5.0269 1.18774 148.753 -21.0956 -24.8715 -16.8302 -0.405602 25.3907 -3.43524 12.8988 9.33206 -1.97969 0.0462048 0.000530889 0.662642 8.09966 22.571 0.692091 -3.78562 -0.626732 3.00403 -1.84271 -11.4042 17.8905 -21.6853 2.8239 -6.53733 -52.6157 1.91893 -27.7487 -15.4323 17.3328 -60.7309 15.2037 7.48874 -13.854 31.3709 4.73017 8.51933 35.73 2.0819 28.799 -18.3781 26.3472 82.0274 -21.0001 8.56036 2.20588 13.5353 -22.5536 17.6866 0.948158 54.0464 6.74046 -4.62068 -24.1107 -0.553433 -1.29846e-009 8.75235e-006 -1.46902e-008 
-40.4544 97.8576 106.838 5.13586 1.21194 143.854 -18.8092 -27.6504 -16.8898 -0.636205 41.0904 -5.1386 9.58963 -3.10491 -0.501542 0.0462048 0.000530889 0.662642 7.38744 23.073 0.42346 -2.33122 0.122088 2.32461 -2.58701 -9.09479 23.0543 -21.344 2.70866 -6.24114 -50.0052 2.50711 -28.8002 -13.3571 17.1311 -56.7577 12.9619 7.91388 -13.4198 31.3867 4.77204 8.62513 35.9695 2.91906 29.8578 -15.3388 27.2579 76.3638 -19.0933 8.63917 2.52619 12.0555 -23.2048 20.036 1.12554 53.7898 9.92242 -3.28823 -23.4217 -0.338873 -1.29846e-009 8.75235e-006 -1.46902e-008 
-44.1665 97.6888 107.339 4.37121 1.05945 139.624 -17.0266 -29.0038 -16.6713 -0.862801 55.5748 -5.25082 8.45146 -9.51698 -0.038842 0.0462048 0.000530889 0.662642 6.00414 22.4742 0.264811 -1.44041 0.994321 1.64583 -3.57573 -7.0477 27.4959 -21.3302 2.65476 -6.05232 -46.1547 3.64127 -29.8764 -10.5567 17.5465 -52.346 9.45317 8.56871 -12.4409 31.5113 4.76116 8.55695 37.0222 3.20213 29.6889 -12.7352 27.9349 70.3802 -17.8062 8.60655 3.35686 10.5925 -24.6808 22.6256 1.2586 53.4738 12.4166 -2.09902 -22.585 -0.158482 -1.29846e-009 8.75235e-006 -1.46902e-008 
-47.5322 97.5157 107.712 3.51564 0.469846 135.343 -14.6639 -28.4421 -16.1408 -1.28155 66.3935 -4.62893 7.97693 -11.2076 0.0565539 0.0462048 0.000530889 0.662642 5.41007 21.4718 0.131762 -1.70816 1.93636 1.34267 -4.57441 -6.17432 31.2089 -21.4221 2.66945 -6.07516 -41.6048 5.37846 -30.3939 -7.81587 18.4971 -48.1065 6.86124 9.0275 -11.4017 32.1453 4.79291 8.44055 38.1835 2.52478 28.1004 -10.8876 28.4188 65.0473 -17.3274 8.52451 4.18776 10.2238 -26.3944 26.1127 1.34395 52.9975 14.1133 -1.12843 -21.8523 -0.0243447 -1.29846e-009 8.75235e-006 -1.46902e-008 
